# xmcd
#
# Track frame offsets:
#	183
#	21160
#	40145
#	55285
#	66868
#	84308
#	97868
#	112993
#	129313
#	152425
#
# Disc length: 2253 seconds
#
# Revision: 2
# Processed by: cddbd v1.5.2PL0 Copyright (c) Steve Scherf et al.
# Submitted via: EasyCDDAExtractor 11.1.0.1
#
DISCID=6f08cb0a
DTITLE=Various Artist - Live Action! (Charly Blues Masterworks Vol. 15)
DYEAR=1992
DGENRE=Blues
TTITLE0=Muddy Waters, Willie Dixon And Buddy Guy - Wee, Wee Baby
TTITLE1=Muddy Waters - Sitting And Thinking
TTITLE2=Buddy Guy - Worried Blues
TTITLE3=Sonny Boy Williamson - Bring It On Home
TTITLE4=Howlin' Wolf - Sugar Mama
TTITLE5=Muddy Waters - Clouds In My Heart
TTITLE6=Howlin' Wolf - May I Have A Talk With You
TTITLE7=Muddy Waters - Got My Mojo Working
TTITLE8=Buddy Guy - Don't Know Which Way To Go
TTITLE9=Muddy Waters - 19 Years Old
EXTD=
EXTT0=Muddy Waters, Willie Dixon, Buddy Guy
EXTT1=Muddy Waters
EXTT2=Buddy Guy
EXTT3=Sonny Boy Williamson
EXTT4=Howlin' Wolf
EXTT5=Muddy Waters
EXTT6=Howlin' Wolf
EXTT7=Muddy Waters
EXTT8=Buddy Guy
EXTT9=Muddy Waters
PLAYORDER=
